<svg viewBox="0 0 900 1100" xmlns="http://www.w3.org/2000/svg">
  <!-- Background -->
  <rect width="900" height="1100" fill="#f8f9fa" />
  
  <!-- Title -->
  <text x="450" y="40" font-family="Arial" font-size="28" font-weight="bold" text-anchor="middle">Hyena-Y Architecture</text>
  <text x="450" y="70" font-family="Arial" font-size="18" font-style="italic" text-anchor="middle">Convolution-Based Multi-Hybrid Model for Edge Devices</text>
  
  <!-- Main model frame -->
  <rect x="100" y="100" width="700" height="950" rx="10" ry="10" fill="#e9ecef" stroke="#495057" stroke-width="2" />
  
  <!-- Input and embedding section -->
  <rect x="150" y="130" width="600" height="100" rx="5" ry="5" fill="#4dabf7" stroke="#1864ab" stroke-width="2" />
  <text x="450" y="155" font-family="Arial" font-size="18" font-weight="bold" text-anchor="middle" fill="white">Input Processing</text>
  
  <!-- Input embedding details -->
  <rect x="190" y="175" width="240" height="40" rx="5" ry="5" fill="#a5d8ff" stroke="#1864ab" stroke-width="1" />
  <text x="310" y="200" font-family="Arial" font-size="14" text-anchor="middle">Token Embedding</text>
  
  <rect x="470" y="175" width="240" height="40" rx="5" ry="5" fill="#a5d8ff" stroke="#1864ab" stroke-width="1" />
  <text x="590" y="200" font-family="Arial" font-size="14" text-anchor="middle">Position Embedding</text>
  
  <!-- Hyena-Y Blocks Section -->
  <rect x="150" y="250" width="600" height="470" rx="5" ry="5" fill="#74c0fc" stroke="#1864ab" stroke-width="2" />
  <text x="450" y="275" font-family="Arial" font-size="18" font-weight="bold" text-anchor="middle" fill="white">Hyena-Y Blocks (2/3 of Total Depth)</text>
  
  <!-- Single Hyena-Y Block Detail -->
  <rect x="190" y="300" width="520" height="230" rx="5" ry="5" fill="#a5d8ff" stroke="#1864ab" stroke-width="1" />
  <text x="450" y="320" font-family="Arial" font-size="16" font-weight="bold" text-anchor="middle">Hyena-Y Block</text>
  
  <!-- Layer Norm -->
  <rect x="210" y="340" width="480" height="30" rx="3" ry="3" fill="#caf0f8" stroke="#0077b6" stroke-width="1" />
  <text x="450" y="360" font-family="Arial" font-size="14" text-anchor="middle">Layer Normalization</text>
  
  <!-- Hyena-Y Convolution Detail -->
  <rect x="210" y="380" width="480" height="130" rx="3" ry="3" fill="#caf0f8" stroke="#0077b6" stroke-width="1" />
  <text x="450" y="400" font-family="Arial" font-size="14" font-weight="bold" text-anchor="middle">Hyena-Y Convolution</text>
  
  <!-- Projections -->
  <rect x="230" y="420" width="200" height="30" rx="3" ry="3" fill="#e0fbfc" stroke="#0077b6" stroke-width="1" />
  <text x="330" y="440" font-family="Arial" font-size="12" text-anchor="middle">Projection U (Linear)</text>
  
  <rect x="470" y="420" width="200" height="30" rx="3" ry="3" fill="#e0fbfc" stroke="#0077b6" stroke-width="1" />
  <text x="570" y="440" font-family="Arial" font-size="12" text-anchor="middle">Projection V (Linear)</text>
  
  <!-- Inner Convolution -->
  <rect x="230" y="460" width="440" height="30" rx="3" ry="3" fill="#e0fbfc" stroke="#0077b6" stroke-width="1" />
  <text x="450" y="480" font-family="Arial" font-size="12" text-anchor="middle">Inner Convolution (Short Explicit Filter)</text>
  
  <!-- Key differentiator -->
  <rect x="190" y="540" width="520" height="40" rx="5" ry="5" fill="#e0fbfc" stroke="#0077b6" stroke-width="1" stroke-dasharray="5,3" />
  <text x="450" y="565" font-family="Arial" font-size="14" font-style="italic" text-anchor="middle" fill="#0077b6">No Convolution in Gates (Key Differentiator from Original Hyena)</text>
  
  <!-- Residual connection -->
  <path d="M 190 300 L 160 300 L 160 540 L 190 540" stroke="#0077b6" stroke-width="2" fill="none" stroke-dasharray="5,3" />
  <text x="140" y="420" font-family="Arial" font-size="12" text-anchor="middle" transform="rotate(270, 140, 420)">Residual Connection</text>
  
  <!-- Multiple blocks -->
  <rect x="190" y="600" width="520" height="100" rx="5" ry="5" fill="#a5d8ff" stroke="#1864ab" stroke-width="1" />
  <text x="450" y="645" font-family="Arial" font-size="16" font-weight="bold" text-anchor="middle">Additional Hyena-Y Blocks</text>
  <text x="450" y="670" font-family="Arial" font-size="14" font-style="italic" text-anchor="middle">(Same Structure as Above)</text>
  
  <!-- GQA Transformer Blocks Section -->
  <rect x="150" y="740" width="600" height="190" rx="5" ry="5" fill="#da77f2" stroke="#862e9c" stroke-width="2" />
  <text x="450" y="765" font-family="Arial" font-size="18" font-weight="bold" text-anchor="middle" fill="white">GQA Transformer Blocks (1/3 of Total Depth)</text>
  
  <!-- Transformer Block Detail -->
  <rect x="190" y="790" width="520" height="120" rx="5" ry="5" fill="#f3d9fa" stroke="#862e9c" stroke-width="1" />
  <text x="450" y="810" font-family="Arial" font-size="16" font-weight="bold" text-anchor="middle">GQA Transformer Block</text>
  
  <rect x="210" y="830" width="225" height="60" rx="3" ry="3" fill="#f8edfc" stroke="#862e9c" stroke-width="1" />
  <text x="322" y="850" font-family="Arial" font-size="14" text-anchor="middle">Layer Norm + GQA</text>
  <text x="322" y="870" font-family="Arial" font-size="12" text-anchor="middle">Grouped Query Attention</text>
  
  <rect x="465" y="830" width="225" height="60" rx="3" ry="3" fill="#f8edfc" stroke="#862e9c" stroke-width="1" />
  <text x="577" y="850" font-family="Arial" font-size="14" text-anchor="middle">Layer Norm + FFN</text>
  <text x="577" y="870" font-family="Arial" font-size="12" text-anchor="middle">SwiGLU Activation</text>
  
  <!-- Output Layer -->
  <rect x="150" y="950" width="600" height="80" rx="5" ry="5" fill="#4dabf7" stroke="#1864ab" stroke-width="2" />
  <text x="450" y="975" font-family="Arial" font-size="18" font-weight="bold" text-anchor="middle" fill="white">Output Processing</text>
  
  <rect x="190" y="995" width="240" height="30" rx="3" ry="3" fill="#a5d8ff" stroke="#1864ab" stroke-width="1" />
  <text x="310" y="1015" font-family="Arial" font-size="14" text-anchor="middle">Final Layer Norm</text>
  
  <rect x="470" y="995" width="240" height="30" rx="3" ry="3" fill="#a5d8ff" stroke="#1864ab" stroke-width="1" />
  <text x="590" y="1015" font-family="Arial" font-size="14" text-anchor="middle">LM Head (Linear)</text>
  
  <!-- Connector lines -->
  <path d="M 450 230 L 450 250" stroke="#495057" stroke-width="2" marker-end="url(#arrow)" />
  <path d="M 450 720 L 450 740" stroke="#495057" stroke-width="2" marker-end="url(#arrow)" />
  <path d="M 450 930 L 450 950" stroke="#495057" stroke-width="2" marker-end="url(#arrow)" />
  
  <!-- Key Features -->
  <rect x="750" y="130" width="100" height="20" fill="#ffffff" stroke="none" />
  <text x="800" y="145" font-family="Arial" font-size="14" font-weight="bold" text-anchor="middle">Key Features:</text>
  
  <rect x="750" y="160" width="12" height="12" fill="#74c0fc" stroke="#1864ab" stroke-width="1" />
  <text x="770" y="170" font-family="Arial" font-size="12" text-anchor="start">2/3 Hyena-Y Blocks</text>
  
  <rect x="750" y="180" width="12" height="12" fill="#da77f2" stroke="#862e9c" stroke-width="1" />
  <text x="770" y="190" font-family="Arial" font-size="12" text-anchor="start">1/3 GQA Blocks</text>
  
  <rect x="750" y="200" width="12" height="12" fill="#e0fbfc" stroke="#0077b6" stroke-width="1" stroke-dasharray="5,3" />
  <text x="770" y="210" font-family="Arial" font-size="12" text-anchor="start">No Gate Convolutions</text>
  
  <rect x="750" y="220" width="12" height="12" fill="#caf0f8" stroke="#0077b6" stroke-width="1" />
  <text x="770" y="230" font-family="Arial" font-size="12" text-anchor="start">Inner Convolution</text>
  
  <rect x="750" y="240" width="12" height="12" fill="#f8edfc" stroke="#862e9c" stroke-width="1" />
  <text x="770" y="250" font-family="Arial" font-size="12" text-anchor="start">Grouped Query Attn</text>

  <!-- Advantages -->
  <rect x="750" y="280" width="100" height="20" fill="#ffffff" stroke="none" />
  <text x="800" y="295" font-family="Arial" font-size="14" font-weight="bold" text-anchor="middle">Advantages:</text>
  
  <circle cx="756" cy="315" r="4" fill="#495057" />
  <text x="770" y="320" font-family="Arial" font-size="12" text-anchor="start">Faster decode latency</text>
  
  <circle cx="756" cy="335" r="4" fill="#495057" />
  <text x="770" y="340" font-family="Arial" font-size="12" text-anchor="start">Lower memory usage</text>
  
  <circle cx="756" cy="355" r="4" fill="#495057" />
  <text x="770" y="360" font-family="Arial" font-size="12" text-anchor="start">Better quality-efficiency</text>
  
  <circle cx="756" cy="375" r="4" fill="#495057" />
  <text x="770" y="380" font-family="Arial" font-size="12" text-anchor="start">Edge-optimized</text>
  
  <!-- Model Sizes -->
  <rect x="750" y="410" width="100" height="20" fill="#ffffff" stroke="none" />
  <text x="800" y="425" font-family="Arial" font-size="14" font-weight="bold" text-anchor="middle">Model Variants:</text>
  
  <rect x="750" y="435" width="140" height="50" rx="5" ry="5" fill="#ffffff" stroke="#495057" stroke-width="1" />
  <text x="820" y="455" font-family="Arial" font-size="12" font-weight="bold" text-anchor="middle">Hyena-Y 1B</text>
  <text x="820" y="475" font-family="Arial" font-size="10" text-anchor="middle">2048 dim, 24 layers</text>
  
  <rect x="750" y="495" width="140" height="50" rx="5" ry="5" fill="#ffffff" stroke="#495057" stroke-width="1" />
  <text x="820" y="515" font-family="Arial" font-size="12" font-weight="bold" text-anchor="middle">Hyena-Y 7B</text>
  <text x="820" y="535" font-family="Arial" font-size="10" text-anchor="middle">4096 dim, 32 layers</text>
  
  <!-- Arrow marker definition -->
  <defs>
    <marker id="arrow" markerWidth="10" markerHeight="10" refX="9" refY="3" orient="auto" markerUnits="strokeWidth">
      <path d="M0,0 L0,6 L9,3 z" fill="#495057" />
    </marker>
  </defs>
</svg>
